<svg width="237" height="60" viewBox="0 0 237 60" fill="none" xmlns="http://www.w3.org/2000/svg">
<path d="M31.1718 18.2042C21.8451 14.8886 11.7076 14.6148 2.21558 17.422C1.83828 17.5123 1.48304 17.6777 1.17108 17.9083C0.859111 18.1389 0.596816 18.43 0.39985 18.7643C0.202884 19.0985 0.0752869 19.469 0.0246769 19.8536C-0.0259332 20.2383 0.00148172 20.6292 0.105285 21.003C0.624801 23.0879 1.38259 25.4833 2.29272 27.6551C2.30835 27.7059 2.33276 27.6815 2.33276 27.6307C2.20093 26.6122 2.98411 25.3261 4.5202 24.8583C11.9023 22.5089 19.8468 22.6141 27.1641 25.1581C27.434 25.2504 27.7196 25.2878 28.0042 25.2679C28.2887 25.2481 28.5664 25.1715 28.8209 25.0426C29.0754 24.9137 29.3015 24.7352 29.4859 24.5176C29.6702 24.2999 29.8092 24.0475 29.8945 23.7753C30.8046 20.8457 31.1718 18.8565 31.2626 18.3585C31.2782 18.2657 31.1962 18.2306 31.1718 18.2052V18.2042ZM8.66949 24.6493C7.55136 24.8827 6.0055 25.2499 4.84538 25.6347C2.52611 26.4344 2.63353 29.2566 3.86885 30.157C3.95967 29.6336 4.5202 28.9217 5.14518 28.6815C7.46054 27.7713 9.9468 27.2274 12.4604 27.0028C11.1831 26.4843 9.93703 25.7411 8.68609 24.6484L8.66949 24.6493ZM27.1328 30.2996C23.8008 28.734 20.1887 27.8523 16.5101 27.7065C12.8315 27.5608 9.16094 28.1539 5.71547 29.451C4.61101 29.8679 3.91963 31.2117 4.61101 32.487C5.81883 34.6707 7.18954 36.7602 8.71148 38.7378C8.49274 37.98 8.87945 36.5767 10.3638 36.1178C14.4691 34.8561 18.7766 35.3912 21.6398 36.5504C22.4484 36.8756 23.5929 36.6783 24.2345 35.7174C25.3286 34.0319 26.3237 32.2842 27.2148 30.4832C27.2549 30.4021 27.2149 30.3416 27.1328 30.2996ZM20.4807 40.4165C19.2797 39.81 18.1814 39.0189 17.2259 38.0718C16.7835 37.6294 16.1322 36.9937 15.4457 36.2359C13.8783 36.2359 12.3569 36.3931 10.73 36.9127C9.21928 37.3853 9.07768 39.1304 9.73879 40.0405C10.8569 41.434 11.6411 42.1859 12.892 43.4789C13.555 44.1291 14.4452 44.4954 15.3738 44.5C16.3024 44.5045 17.1962 44.147 17.8655 43.5033C18.842 42.5268 19.4426 41.8754 20.5461 40.6245C20.6115 40.5581 20.5861 40.4419 20.4797 40.4165H20.4807Z" fill="black"/>
</svg>
